<?xml version="1.0" encoding="UTF-8"?>
<!DOCTYPE svg  PUBLIC '-//W3C//DTD SVG 1.1//EN'  'http://www.w3.org/Graphics/SVG/1.1/DTD/svg11.dtd'>
<svg width="935.42px" height="283.47px" enable-background="new 0 0 935.419 283.466" version="1.1" viewBox="0 0 935.419 283.466" xml:space="preserve" xmlns="http://www.w3.org/2000/svg" xmlns:xlink="http://www.w3.org/1999/xlink">
			<path d="m793.68 109.87v11.623h-24.216v51.14h-16.327v-51.14h-24.207v-11.623h64.75z"/>
			<path d="m735.9 161v11.632h-51.882v-62.763h16.316v51.13h35.566z"/>
			<path d="m421.62 161v11.632h-54.508v-62.763h53.481v11.629h-37.151v13.791h33.948v11.254h-33.948v14.457h38.178z"/>
				<path d="m337.86 149.32c6.99-3.791 11.306-11.256 11.306-19.085 0-6.527-1.903-11.593-5.894-14.923-4.64-3.844-10.998-5.441-21.734-5.441h-37.436l-0.665 3.784s0.665 1.131 1.441 2.487c1.161 1.998 1.064 2.586 1.064 3.922v52.57h16.333v-20.096h20.288l10.888 20.096h17.977l-13.568-23.314zm-8.256-10.189c-1.255 1.228-2.746 1.82-5.062 1.82h-22.269v-19.13h17.591c5.235 0 8.034 0.591 9.918 2.122 1.847 1.477 2.74 3.733 2.74 7.056 1e-3 3.438-0.913 6.198-2.918 8.132z"/>
		<path d="m489.97 109.86v41.632c-3.807-4.795-7.805-9.417-14.561-16.843-5.499-6.036-16.959-18.421-22.849-24.779h-15.759l-0.658 3.784s0.673 1.131 1.44 2.487c0.875 1.492 1.051 2.199 1.077 3.009 0 0.067-9e-3 53.483-9e-3 53.483l14.671-0.047v-41.576c2.927 3.905 8.143 9.9 11.619 13.671 6.926 7.489 17.385 19.166 25.527 27.952h14.097v-62.763l-14.595-0.01z"/>
		<path d="m649.82 109.87v38.379c0 4.281-0.854 6.828-2.943 8.783-2.643 2.457-7.008 3.632-13.309 3.632-6.397 0-10.875-1.175-13.506-3.632-2.082-1.955-2.939-4.51-2.939-8.783v-38.379h-18.172l-0.662 3.784s0.677 1.131 1.434 2.487c0.829 1.438 1.022 2.143 1.061 2.921 0 0.098 0.012 29.778 0.012 29.778 0 16.409 11.118 24.759 32.553 24.759h0.453c21.457 0 31.987-8.121 31.987-24.759v-38.97h-15.969z"/>
		<path d="m564.46 109.87h-20.4c-6.186 12.777-16.95 36.355-27.023 62.766h16.384c1.305-3.572 2.692-7.217 4.085-10.87h33.505c1.409 3.653 2.787 7.298 4.087 10.87h16.392c-10.083-26.411-20.845-49.989-27.03-62.766zm-22.266 40.065c4.292-10.693 8.595-20.809 12.063-28.65 3.468 7.842 7.785 17.957 12.073 28.65h-24.136z"/>
	<rect x="902.86" width="32.564" height="283.47" fill="#FFCE00"/>
		<linearGradient id="m" x1="113.34" x2="113.34" y1="278.09" y2="5.3774" gradientUnits="userSpaceOnUse">
			<stop stop-color="#E6E6E6" offset="0"/>
			<stop stop-color="#fff" offset=".6866"/>
			<stop stop-color="#919191" offset="1"/>
		</linearGradient>
		<path d="m219.88 136.41c-4.829-10.212-16.156-32.326-27.636-53.192-16.183-29.414-41.51-71.303-44.118-74.89-0.702-0.966-1.273-1.618-1.857-2.043-0.325-0.239-0.645-0.4-0.992-0.507-0.646-0.199-2.084-0.078-3.141 0.033-0.567 0.06-1.28 0.046-1.827 0.023-5.406-0.228-16.267-0.455-26.971-0.455-13.151 0-29 0.4-31.051 0.606-1.066 0.107-1.467 0.303-1.87 0.499-0.525 0.294-1.06 0.58-1.909 1.844-2.469 3.681-27.892 45.476-44.075 74.89-11.48 20.865-22.807 42.979-27.636 53.192-1.279 2.706-1.47 4.493-1.47 5.326 0 1.469 0.495 3.257 1.47 5.32 4.829 10.213 16.156 32.326 27.636 53.192 16.184 29.415 41.51 71.303 44.118 74.89 0.405 0.558 0.765 1.009 1.111 1.375 0.587 0.621 1.121 0.986 1.738 1.175 0.646 0.199 1.922 0.078 2.978-0.033 0.567-0.06 1.28-0.042 1.826-0.023 6.521 0.221 16.531 0.458 27.134 0.455 13.151-5e-3 28.517-0.343 30.831-0.608l0.37-0.042c0.88-0.099 1.378-0.232 1.645-0.362 0.529-0.22 0.977-0.648 2.062-2.142 2.608-3.587 27.815-45.271 43.999-74.685 11.48-20.865 22.807-42.979 27.636-53.192 1.279-2.706 1.47-4.83 1.47-5.662 0-1.468-0.495-2.92-1.471-4.984zm-74.689 10.844c-10.83 24.281-18.518 39.417-29.924 61.344-0.657 1.264-1.197 2.089-1.943 2.104-0.754 0-1.274-0.833-1.938-2.109-11.406-21.928-19.094-37.063-29.924-61.344-0.926-2.076-1.58-3.609-1.58-5.56 0.026-1.893 0.683-3.446 1.589-5.479 10.83-24.281 18.518-39.417 29.924-61.345 0.658-1.264 1.182-2.087 1.928-2.102l3e-3 -1e-3 -3e-3 1e-3 0.02-1e-3c0.757 0 1.285 0.828 1.949 2.104 11.406 21.928 19.095 37.063 29.924 61.345 0.926 2.076 1.559 3.606 1.559 5.556 0 1.959-0.677 3.454-1.584 5.487z" fill="url(#m)"/>
		<defs>
			<filter id="y" x="5.327" y="5.377" width="216.02" height="272.71" filterUnits="userSpaceOnUse">
					<feColorMatrix color-interpolation-filters="sRGB" result="source" values="-1 0 0 0 1  0 -1 0 0 1  0 0 -1 0 1  0 0 0 1 0"/>
				<feFlood flood-color="white" result="back"/>
				<feBlend in="source" in2="back"/>
			</filter>
		</defs>
		<mask id="h" x="5.327" y="5.377" width="216.023" height="272.709" maskUnits="userSpaceOnUse">
			<g filter="url(#y)">
				<linearGradient id="g" x1="109.91" x2="109.91" y1="297.54" y2="143.83" gradientUnits="userSpaceOnUse">
					<stop stop-color="#fff" offset=".8545"/>
					<stop offset="1"/>
				</linearGradient>
				<rect x="-28.812" y="143.83" width="277.45" height="153.71" fill="url(#g)"/>
			</g>
		</mask>
			<radialGradient id="f" cx="97.104" cy="75.71" r="136.48" gradientTransform="matrix(.9963 0 0 1 2.4992 0)" gradientUnits="userSpaceOnUse">
			<stop stop-color="#fff" offset=".401"/>
			<stop stop-color="#919191" offset="1"/>
		</radialGradient>
		<path d="m219.88 136.41c-4.829-10.212-16.156-32.326-27.636-53.192-16.183-29.414-41.51-71.303-44.118-74.89-0.702-0.966-1.273-1.618-1.857-2.043-0.325-0.239-0.645-0.4-0.992-0.507-0.646-0.199-2.084-0.078-3.141 0.033-0.567 0.06-1.28 0.046-1.827 0.023-5.406-0.228-16.267-0.455-26.971-0.455-13.151 0-29 0.4-31.051 0.606-1.066 0.107-1.467 0.303-1.87 0.499-0.525 0.294-1.06 0.58-1.909 1.844-2.469 3.681-27.892 45.476-44.075 74.89-11.48 20.865-22.807 42.979-27.636 53.192-1.279 2.706-1.47 4.493-1.47 5.326 0 1.469 0.495 3.257 1.47 5.32 4.829 10.213 16.156 32.326 27.636 53.192 16.184 29.415 41.51 71.303 44.118 74.89 0.405 0.558 0.765 1.009 1.111 1.375 0.587 0.621 1.121 0.986 1.738 1.175 0.646 0.199 1.922 0.078 2.978-0.033 0.567-0.06 1.28-0.042 1.826-0.023 6.521 0.221 16.531 0.458 27.134 0.455 13.151-5e-3 28.517-0.343 30.831-0.608l0.37-0.042c0.88-0.099 1.378-0.232 1.645-0.362 0.529-0.22 0.977-0.648 2.062-2.142 2.608-3.587 27.815-45.271 43.999-74.685 11.48-20.865 22.807-42.979 27.636-53.192 1.279-2.706 1.47-4.83 1.47-5.662 0-1.468-0.495-2.92-1.471-4.984zm-74.689 10.844c-10.83 24.281-18.518 39.417-29.924 61.344-0.657 1.264-1.197 2.089-1.943 2.104-0.754 0-1.274-0.833-1.938-2.109-11.406-21.928-19.094-37.063-29.924-61.344-0.926-2.076-1.58-3.609-1.58-5.56 0.026-1.893 0.683-3.446 1.589-5.479 10.83-24.281 18.518-39.417 29.924-61.345 0.658-1.264 1.182-2.087 1.928-2.102l3e-3 -1e-3 -3e-3 1e-3 0.02-1e-3c0.757 0 1.285 0.828 1.949 2.104 11.406 21.928 19.095 37.063 29.924 61.345 0.926 2.076 1.559 3.606 1.559 5.556 0 1.959-0.677 3.454-1.584 5.487z" fill="url(#f)" mask="url(#h)"/>
			<linearGradient id="e" x1="59.416" x2="59.416" y1="276.75" y2="142.41" gradientUnits="userSpaceOnUse">
				<stop stop-color="#E6E6E6" offset=".0104"/>
				<stop stop-color="#A6A6A6" offset=".3385"/>
				<stop stop-color="#333" offset=".6941"/>
				<stop stop-color="#1A1A1A" offset=".8452"/>
				<stop stop-color="#0D0D0D" offset=".948"/>
				<stop stop-color="#101010" offset=".9621"/>
				<stop stop-color="#191919" offset=".9724"/>
				<stop stop-color="#292929" offset=".9815"/>
				<stop stop-color="#404040" offset=".9899"/>
				<stop stop-color="#5C5C5C" offset=".9978"/>
				<stop stop-color="#666" offset="1"/>
			</linearGradient>
			<path d="m73.192 150.57s-3.183-5.952-3.307-8.295c-0.017-0.313-0.027-0.414 0-0.72 0.052-0.598-0.179-0.382-0.702 0.109-0.934 0.876-2.571 1.743-6.576 1.743-3.549 0-33.755-0.038-48.15-0.038-2.109 0-4.94-0.162-4.94 3.178 0 1.965 1.703 5.921 5.196 12.755 19.099 37.361 40.319 74.681 63.065 111.15 0 0 3.471 5.594 3.829 6.04 0.357 0.445 0.778 0.639 1.631 0.63 0 0 14.425-26.419 26.078-55.223-12.962-23.918-24.934-47.561-36.124-71.332z" fill="url(#e)"/>
			<linearGradient id="d" x1="83.247" x2="83.247" y1="277.12" y2="277.12" gradientUnits="userSpaceOnUse">
				<stop stop-color="#E6E6E6" offset=".0104"/>
				<stop stop-color="#A6A6A6" offset=".3385"/>
				<stop stop-color="#333" offset=".6941"/>
				<stop stop-color="#1A1A1A" offset=".8452"/>
				<stop stop-color="#0D0D0D" offset=".948"/>
				<stop stop-color="#101010" offset=".9621"/>
				<stop stop-color="#191919" offset=".9724"/>
				<stop stop-color="#292929" offset=".9815"/>
				<stop stop-color="#404040" offset=".9899"/>
				<stop stop-color="#5C5C5C" offset=".9978"/>
				<stop stop-color="#666" offset="1"/>
			</linearGradient>
			<path d="m83.238 277.12h0.016c-5e-3 -1e-3 -0.01 0-0.016 0z" fill="url(#d)"/>
		<linearGradient id="c" x1="152.01" x2="152.01" y1="276.74" y2="142.29" gradientUnits="userSpaceOnUse">
			<stop stop-color="#E6E6E6" offset=".0104"/>
			<stop stop-color="#A6A6A6" offset=".3385"/>
			<stop stop-color="#333" offset=".6941"/>
			<stop stop-color="#1A1A1A" offset=".8452"/>
			<stop stop-color="#0D0D0D" offset=".9538"/>
			<stop stop-color="#101010" offset=".9663"/>
			<stop stop-color="#191919" offset=".9754"/>
			<stop stop-color="#292929" offset=".9835"/>
			<stop stop-color="#404040" offset=".991"/>
			<stop stop-color="#5C5C5C" offset=".998"/>
			<stop stop-color="#666" offset="1"/>
		</linearGradient>
		<path d="m218.68 142.07c-0.519 0.533-1.976 1.312-5.228 1.312h-39.662c-18.187 0-16.342-0.485-21.066 9.132-2.103 4.281-4.275 9.316-6.486 13.452-15.877 33.2-54.625 100.06-59.858 108.35-1.969 3.119-2.256 3.285-0.824 3.285 0 0 13.148 0.483 27.784 0.483 22.854 0 31.03-0.631 31.03-0.631 13.256-20.624 44.863-72.927 67.431-118.23 5.196-10.432 7.803-14.974 7.546-17.205-0.051-0.434-0.446-0.177-0.667 0.051z" fill="url(#c)"/>
		<linearGradient id="b" x1="107.48" x2="107.48" y1="140.83" y2="5.4985" gradientUnits="userSpaceOnUse">
			<stop stop-color="#333" offset="0"/>
			<stop stop-color="#282828" offset=".0091"/>
			<stop stop-color="#1D1D1D" offset=".0238"/>
			<stop stop-color="#1A1A1A" offset=".04"/>
			<stop stop-color="#141414" offset=".1234"/>
			<stop stop-color="#050505" offset=".2278"/>
			<stop offset=".2521"/>
		</linearGradient>
		<path d="m143.32 6.358c-0.981-0.047-1.682 0.699-3.024 2.778-11.215 17.368-49.929 90.306-65.739 124.32-1.937 4.166-2.919 6.2-2.919 8.219l8.247 0.015c0-0.015-5e-3 0.013 0 0 0.026-1.893 0.683-3.446 1.589-5.479 10.83-24.281 18.518-39.417 29.924-61.345 0.658-1.264 1.182-2.087 1.928-2.102l3e-3 -1e-3 3.205-9.326c11.159-27.821 26.786-57.077 26.786-57.077z" fill="url(#b)"/>
		<linearGradient id="a" x1="134.16" x2="134.16" y1="141.77" y2="63.428" gradientUnits="userSpaceOnUse">
			<stop stop-color="#737373" offset="0"/>
			<stop stop-color="#6D6D6D" offset=".1483"/>
			<stop stop-color="#5E5E5E" offset=".3318"/>
			<stop stop-color="#454545" offset=".534"/>
			<stop stop-color="#222" offset=".7481"/>
			<stop stop-color="#1A1A1A" offset=".7954"/>
			<stop offset=".9207"/>
		</linearGradient>
		<path d="m154.99 141.76c0-2.018-0.938-4.002-2.878-8.123-10.928-23.211-22.355-45.833-35.579-70.213l-3.207 9.333-3e-3 1e-3 0.02-1e-3c0.757 0 1.285 0.828 1.949 2.104 11.406 21.928 19.095 37.063 29.924 61.345 0.926 2.076 1.559 3.606 1.559 5.556v0h8.215z" fill="url(#a)"/>
		<linearGradient id="w" x1="92.48" x2="92.48" y1="220.2" y2="141.82" gradientUnits="userSpaceOnUse">
			<stop stop-color="#BFBFBF" offset=".3571"/>
			<stop stop-color="#BABABA" offset=".4742"/>
			<stop stop-color="#ADADAD" offset=".6093"/>
			<stop stop-color="#959595" offset=".7533"/>
			<stop stop-color="#757575" offset=".9026"/>
			<stop stop-color="#666" offset=".9631"/>
			<stop stop-color="#333" offset="1"/>
		</linearGradient>
		<path d="m113.32 210.7c-0.754 0-1.274-0.833-1.938-2.109-11.406-21.928-19.094-37.063-29.924-61.344-0.926-2.076-1.58-3.609-1.58-5.56v0l-8.247-0.015c-0.011 2.03 0.93 4.078 2.881 8.223 10.93 23.216 22.313 45.776 35.541 70.162l3.267-9.357z" fill="url(#w)"/>
		<linearGradient id="v" x1="123.26" x2="51.957" y1="193.63" y2="161.46" gradientUnits="userSpaceOnUse">
			<stop stop-color="#F2F2F2" stop-opacity=".8" offset=".0132"/>
			<stop stop-color="#EDEDED" stop-opacity="0" offset=".1096"/>
		</linearGradient>
		<path d="m113.32 210.7c-0.754 0-1.274-0.833-1.938-2.109-11.406-21.928-19.094-37.063-29.924-61.344-0.926-2.076-1.58-3.609-1.58-5.56v-0.012l-8.247-0.015c-0.011 2.042 0.93 4.09 2.881 8.235 10.93 23.216 22.313 45.776 35.541 70.162l3.267-9.357z" fill="url(#v)"/>
		<linearGradient id="u" x1="119.12" x2="119.12" y1="276.27" y2="140.9" gradientUnits="userSpaceOnUse">
			<stop stop-color="#fff" offset="0"/>
			<stop stop-color="#F9F9F9" offset=".2169"/>
			<stop stop-color="#E7E7E7" offset=".5128"/>
			<stop stop-color="#CBCBCB" offset=".853"/>
			<stop stop-color="#BFBFBF" offset=".9693"/>
			<stop stop-color="#737373" offset=".9913"/>
		</linearGradient>
		<path d="m83.238 277.12c0.909 0.043 1.992-1.063 3.25-2.976 0.331-0.528 0.775-1.255 1.32-2.159 8.449-14.392 49.175-89.559 64.235-121.96 1.937-4.166 2.95-6.246 2.949-8.265h-8.215c0-3e-3 0-5e-3 -2e-3 0 0 1.96-0.678 3.455-1.584 5.488-10.83 24.281-18.518 39.417-29.924 61.344-0.657 1.264-1.197 2.089-1.943 2.104l-3.267 9.356c-11.772 29.51-26.819 57.065-26.819 57.065z" fill="url(#u)"/>
		<linearGradient id="t" x1="39.832" x2="39.832" y1="281.62" y2="141.73" gradientUnits="userSpaceOnUse">
			<stop stop-color="#666" offset="0"/>
			<stop stop-color="#5D5D5D" offset=".1931"/>
			<stop stop-color="#515151" offset=".5879"/>
			<stop stop-color="#4D4D4D" offset=".9698"/>
			<stop stop-color="#767676" offset=".988"/>
			<stop stop-color="#8C8C8C" offset="1"/>
		</linearGradient>
		<path d="m79.663 276.51c-0.347-0.367-0.706-0.818-1.111-1.375-2.608-3.587-27.935-45.476-44.118-74.89-11.48-20.866-22.807-42.979-27.636-53.192-0.976-2.063-1.47-3.851-1.47-5.32l-5.328-4e-3c0 1.812 0.391 4.159 1.984 7.616 3.759 8.156 14.288 28.934 27.785 53.484 14.736 26.803 41.491 71.378 44.478 75.457 1.229 1.679 2.276 2.693 3.278 3.328l2.138-5.104z" fill="url(#t)"/>
		<linearGradient id="s" x1="86.482" x2="140.35" y1="264.7" y2="295.8" gradientUnits="userSpaceOnUse">
			<stop stop-color="#666" offset=".0193"/>
			<stop stop-color="#4B4B4B" offset=".04"/>
			<stop stop-color="#373737" offset=".0621"/>
			<stop stop-color="#2A2A2A" offset=".0839"/>
			<stop stop-color="#262626" offset=".105"/>
		</linearGradient>
		<path d="m77.526 281.62c1.437 0.913 2.766 1.031 4.377 1.174 3.981 0.354 21.41 0.643 31.436 0.643s28.846-0.408 31.436-0.643c1.228-0.111 2.356-0.225 3.518-0.742l-2.109-4.974c-0.266 0.13-0.764 0.263-1.645 0.362l-0.37 0.042c-2.313 0.266-17.68 0.604-30.831 0.608-10.603 4e-3 -20.614-0.233-27.134-0.455-0.546-0.019-1.259-0.037-1.826 0.023-1.056 0.111-2.332 0.231-2.978 0.033-0.617-0.189-1.15-0.554-1.738-1.175l-2.136 5.104z" fill="url(#s)"/>
		<linearGradient id="r" x1="127.26" x2="246.66" y1="39.861" y2="105.23" gradientUnits="userSpaceOnUse">
			<stop stop-color="#595959" offset="0"/>
			<stop stop-color="#737373" offset="1"/>
		</linearGradient>
		<path d="m226.68 141.73c0-1.475-0.322-4.149-1.984-7.613-4.031-8.4-16.912-33.772-27.785-53.484-14.546-26.37-41.362-71.278-44.479-75.458-1.64-2.199-2.874-3.237-4.117-3.776l-2.043 4.885c0.584 0.425 1.155 1.077 1.857 2.043 2.608 3.587 27.935 45.476 44.118 74.89 11.48 20.867 22.807 42.98 27.636 53.192 0.976 2.063 1.47 3.516 1.47 4.984l5.327 0.337z" fill="url(#r)"/>
		<linearGradient id="q" x1="145.07" x2="80.391" y1="12.71" y2="-5.8359" gradientUnits="userSpaceOnUse">
			<stop stop-color="#595959" offset=".0096"/>
			<stop stop-color="#757575" offset=".0252"/>
			<stop stop-color="#909090" offset=".0441"/>
			<stop stop-color="#A0A0A0" offset=".0609"/>
			<stop stop-color="#A6A6A6" offset=".0738"/>
			<stop stop-color="#D0D0CF" offset=".5011"/>
			<stop stop-color="#BFBFBF" offset="1"/>
		</linearGradient>
		<path d="m78.31 1.424l2.108 5.059c0.403-0.196 0.804-0.391 1.87-0.499 2.052-0.206 17.9-0.606 31.051-0.606 10.705 0 21.565 0.227 26.971 0.455 0.546 0.023 1.26 0.037 1.827-0.023 1.056-0.111 2.494-0.232 3.141-0.033 0.348 0.107 0.667 0.269 0.992 0.507l2.043-4.885c-1.189-0.539-2.339-0.603-3.68-0.726-4.143-0.378-21.961-0.643-31.294-0.643-8.216 0-27.294 0.214-31.761 0.661-1.378 0.138-2.408 0.367-3.268 0.733z" fill="url(#q)"/>
		<linearGradient id="p" x1="-18.1" x2="97.24" y1="94.58" y2="50.305" gradientUnits="userSpaceOnUse">
			<stop stop-color="#8C8C8C" offset="0"/>
			<stop stop-color="#737373" offset=".9868"/>
			<stop stop-color="#BFBFBF" offset="1"/>
		</linearGradient>
		<path d="m78.31 1.424c-1.684 0.713-2.687 1.935-4.242 3.965-3.079 4.02-29.882 49.249-44.298 75.243-10.149 18.299-26.265 50.006-27.791 53.485-1.527 3.478-1.979 5.804-1.979 7.615l5.327 3e-3c0-0.833 0.191-2.621 1.47-5.326 4.829-10.213 16.156-32.327 27.636-53.192 16.184-29.415 41.607-71.209 44.076-74.89 0.849-1.265 1.383-1.55 1.909-1.844l-2.108-5.059z" fill="url(#p)"/>
		<linearGradient id="o" x1="186.43" x2="186.43" y1="282.05" y2="141.39" gradientUnits="userSpaceOnUse">
			<stop stop-color="#262626" offset=".019"/>
			<stop stop-color="#2F2F2F" offset=".2083"/>
			<stop stop-color="#3C3C3C" offset=".5954"/>
			<stop stop-color="#404040" offset=".9698"/>
			<stop stop-color="#5C5C5C" offset=".9854"/>
			<stop stop-color="#737373" offset="1"/>
		</linearGradient>
		<path d="m148.29 282.05c1.292-0.574 2.613-1.643 4.138-3.759 2.89-4.013 31.722-52.146 44.478-75.457 12.756-23.312 26.306-50.173 27.785-53.484 1.842-4.125 1.984-6.143 1.984-7.618l-5.327-0.336c0 0.833-0.191 2.956-1.47 5.662-4.829 10.213-16.156 32.327-27.636 53.192-16.183 29.415-41.391 71.098-43.999 74.685-1.085 1.494-1.533 1.922-2.062 2.142-4e-3 2e-3 0.01-8e-3 0 0l2.109 4.973z" fill="url(#o)"/>
		<path d="m142.14 5.81c0.094-0.01 0.192-0.02 0.292-0.03-4e-3 2e-3 -1.349 1.031-4.804 1.014-4.102-0.02-12.611-0.187-19.416-0.23-12.575-0.08-27.559 0.152-34.561 0.488-3.711 0.178-3.933 0.581-6.306 3.111l-4e-3 -3e-3 1.171-1.832c0.849-1.265 1.383-1.55 1.909-1.844 0.403-0.196 0.804-0.391 1.87-0.499 2.052-0.206 17.9-0.606 31.051-0.606 10.705 0 21.565 0.227 26.971 0.455 0.546 0.021 1.26 0.035 1.827-0.024" fill="#fff"/>
			<defs>
				<path id="n" d="m226.71 141.73c0-1.301-0.258-4.022-1.987-7.626-4.121-8.587-16.93-33.804-27.786-53.486-0.844-1.53-1.727-3.117-2.639-4.749-11.736-7.1-25.486-11.185-40.187-11.185-14.643 0-28.343 4.053-40.048 11.101 1.009 1.917 9 17.159 16.294 32.107 6.839 14.016 12.815 27.448 13.474 28.933 0.889 2.003 1.428 3.336 1.428 4.94 0 1.56-0.53 2.767-1.407 4.766l-0.05 0.112c-0.057 0.13-6.305 14.226-13.53 29.024-6.466 13.245-13.5 26.781-16.223 31.986l-0.127 0.243c-0.265 0.509-0.493 0.877-0.595 0.877s-0.324-0.36-0.585-0.872c-0.037-0.071-0.174-0.335-0.401-0.769-7.631-14.6-12.9-25.172-15.978-31.47-6.916-14.156-13.062-27.978-13.501-29.01l-0.061-0.144c-0.781-1.834-1.397-3.284-1.397-4.821 0-1.547 0.717-3.243 1.451-4.848 0.046-0.1 0.167-0.375 0.359-0.81 4.375-9.917 8.779-19.382 13.092-28.134 6.261-12.705 13.301-26.301 15.635-30.789-21.535 13.926-35.795 38.206-35.795 65.829 0 43.218 34.905 78.253 77.964 78.253 13.874 0 26.902-3.639 38.188-10.016 1.693-2.998 3.256-5.802 4.638-8.327 12.411-22.683 26.198-49.93 27.786-53.487 1.748-3.908 1.988-5.976 1.988-7.628z"/>
			</defs>
			<clipPath id="l">
				<use overflow="visible" xlink:href="#n"/>
			</clipPath>
			<g clip-path="url(#l)">
				<defs>
						<filter id="x" x="76.416" y="64.695" width="156.48" height="156.48" filterUnits="userSpaceOnUse">
						<feColorMatrix values="1 0 0 0 0  0 1 0 0 0  0 0 1 0 0  0 0 0 1 0"/>
					</filter>
				</defs>
				<mask id="k" x="76.416" y="64.695" width="156.482" height="156.482" maskUnits="userSpaceOnUse">
					<g filter="url(#x)">
						<radialGradient id="j" cx="154.9" cy="142.94" r="23.329" gradientUnits="userSpaceOnUse">
							<stop stop-color="#fff" offset=".1664"/>
							<stop stop-color="#EBEBEB" offset=".1876"/>
							<stop stop-color="#BABABA" offset=".2456"/>
							<stop stop-color="#8E8E8E" offset=".3083"/>
							<stop stop-color="#686868" offset=".3742"/>
							<stop stop-color="#474747" offset=".4441"/>
							<stop stop-color="#2D2D2D" offset=".5193"/>
							<stop stop-color="#191919" offset=".6017"/>
							<stop stop-color="#0B0B0B" offset=".6951"/>
							<stop stop-color="#030303" offset=".8088"/>
							<stop offset="1"/>
						</radialGradient>
						<circle cx="154.9" cy="142.94" r="23.329" fill="url(#j)"/>
					</g>
				</mask>
				<radialGradient id="i" cx="154.66" cy="142.94" r="78.241" gradientUnits="userSpaceOnUse">
					<stop stop-color="#fff" offset="0"/>
					<stop stop-color="#fff" stop-opacity="0" offset=".5897"/>
				</radialGradient>
				<circle cx="154.66" cy="142.94" r="78.241" fill="url(#i)" mask="url(#k)"/>
			</g>
		<path d="m145.22 136.21c-0.436-0.983-6.538-14.721-13.497-28.983-7.583-15.542-16.07-31.696-16.427-32.361-0.684-1.275-1.214-2.104-1.949-2.104s-1.225 0.735-1.948 2.104c-0.356 0.673-9.044 17.324-16.454 32.361-7.386 14.987-13.092 28.158-13.47 28.983-0.761 1.662-1.589 3.588-1.589 5.479s0.716 3.529 1.58 5.56c0.413 0.972 6.555 14.797 13.534 29.083 7.593 15.542 16.067 31.628 16.39 32.262 0.641 1.256 1.193 2.109 1.938 2.109s1.279-0.829 1.943-2.104c0.346-0.665 8.784-16.73 16.368-32.264 6.957-14.248 13.104-28.049 13.557-29.081 0.946-2.155 1.584-3.576 1.584-5.488-2e-3 -1.911-0.627-3.452-1.56-5.556zm-1.367 10.322l-0.05 0.112c-0.057 0.13-6.305 14.226-13.53 29.024-6.466 13.245-13.5 26.781-16.223 31.986l-0.127 0.243c-0.265 0.509-0.493 0.877-0.595 0.877s-0.324-0.36-0.585-0.872c-0.037-0.071-0.174-0.335-0.401-0.769-7.631-14.6-12.9-25.172-15.978-31.47-6.916-14.156-13.062-27.978-13.501-29.01l-0.061-0.144c-0.781-1.834-1.397-3.284-1.397-4.821 0-1.547 0.717-3.243 1.451-4.848 0.046-0.1 0.167-0.375 0.359-0.81 4.375-9.917 8.779-19.382 13.092-28.134 7.604-15.431 16.36-32.182 16.435-32.323 0.245-0.463 0.458-0.899 0.6-0.899s0.365 0.439 0.615 0.907c0.07 0.132 8.631 16.387 16.401 32.31 6.839 14.016 12.815 27.448 13.474 28.933 0.889 2.003 1.428 3.336 1.428 4.94 0 1.563-0.53 2.769-1.407 4.768z"/>
		<path d="m224.72 134.1c-4.121-8.587-16.93-33.804-27.786-53.486-14.885-26.985-41.461-71.411-44.48-75.46-2.981-3.999-4.648-4.176-7.411-4.47l-0.407-0.044c-4.018-0.439-21.052-0.644-31.298-0.644-8.778 0-27.423 0.227-31.764 0.661-4.086 0.408-5.197 1.662-7.532 4.709-3.205 4.184-30.225 49.868-44.299 75.247-10.179 18.352-26.295 50.072-27.793 53.487-1.352 3.08-1.981 5.504-1.981 7.628 0 2.263 0.631 4.687 1.987 7.628 3.376 7.326 13.563 27.616 27.786 53.486 14.834 26.981 41.636 71.577 44.48 75.46 3.001 4.098 4.962 4.272 7.677 4.514 4.126 0.367 21.917 0.643 31.439 0.643 10.277 0 28.875-0.41 31.439-0.643 2.541-0.23 4.736-0.43 7.677-4.514 2.7-3.749 31.53-51.794 44.48-75.46 12.411-22.683 26.198-49.93 27.786-53.487 1.747-3.911 1.987-5.979 1.987-7.63 0-1.3-0.258-4.021-1.987-7.625zm-1.415 14.625c-1.583 3.544-15.338 30.727-27.73 53.375-12.931 23.631-41.69 71.565-44.378 75.298-2.528 3.51-4.132 3.656-6.56 3.877-2.539 0.23-21.052 0.636-31.299 0.636-9.496 0-27.215-0.273-31.302-0.637-2.564-0.229-3.977-0.354-6.564-3.886-2.83-3.864-29.561-48.351-44.372-75.292-14.202-25.831-24.369-46.08-27.737-53.388-1.259-2.731-1.845-4.95-1.845-6.98 0-1.902 0.588-4.128 1.85-7.006 1.492-3.4 17.568-35.036 27.729-53.358 14.053-25.339 40.994-70.903 44.175-75.055 2.231-2.913 3.027-3.768 6.456-4.11 4.291-0.429 22.859-0.653 31.61-0.653 10.213 0 27.169 0.201 31.129 0.634l0.411 0.044c2.58 0.274 3.757 0.399 6.334 3.856 3.001 4.026 29.503 48.338 44.366 75.283 10.84 19.653 23.631 44.833 27.746 53.408 1.597 3.328 1.835 5.787 1.835 6.957-1e-3 1.478-0.225 3.351-1.854 6.997z"/>
		<path d="m301.59 203.14c9.879 0 14.044 3.689 14.044 12.318 0 8.57-4.165 12.259-14.044 12.259h-10.949v15.414h-4.761v-36.241c0-0.417-0.179-0.596-0.596-0.774l-1.785-0.774 0.417-2.201h17.674zm-10.949 20.709h10.592c6.784 0 9.581-2.439 9.581-8.391s-2.797-8.391-9.581-8.391h-10.592v16.782z"/>
		<path d="m339.5 240.15c-1.785 2.499-5.058 3.69-9.759 3.69-7.558 0-11.01-2.678-11.01-8.51s3.57-8.45 11.664-8.45c3.095 0 6.011 0.416 8.45 1.25v-3.987c0-4.939-2.499-6.903-8.629-6.903-2.916 0-5.951 0.476-8.926 1.427v-3.809c2.975-0.893 6.069-1.368 9.462-1.368 8.926 0 12.675 3.272 12.675 11.008v14.58c0 0.477 0.06 0.654 0.477 0.833l1.785 0.774-0.477 2.44h-4.938c-0.357 0-0.477 0-0.536-0.477l-0.238-2.498zm-0.654-8.688c-2.261-0.892-4.88-1.309-7.736-1.309-5.415 0-7.677 1.429-7.677 5.118 0 3.511 2.202 5.118 7.201 5.118 5.713 0 8.212-1.964 8.212-6.309v-2.618z"/>
		<path d="m362.18 213.49c3.332 0 6.427 0.475 9.343 1.309l-0.773 3.69c-2.737-0.893-5.416-1.31-8.331-1.31-4.88 0-7.142 1.607-7.142 4.582 0 7.022 17.437 1.726 17.437 13.33 0 5.773-4.226 8.749-11.604 8.749-3.689 0-7.082-0.476-10.116-1.428v-3.868c3.153 1.07 6.427 1.606 9.759 1.606 5.059 0 7.38-1.845 7.38-4.999 0-7.796-17.437-1.905-17.437-13.331-2e-3 -5.593 4.282-8.33 11.484-8.33z"/>
		<path d="m389.38 213.49c3.332 0 6.427 0.475 9.343 1.309l-0.773 3.69c-2.737-0.893-5.416-1.31-8.331-1.31-4.88 0-7.142 1.607-7.142 4.582 0 7.022 17.437 1.726 17.437 13.33 0 5.773-4.226 8.749-11.604 8.749-3.689 0-7.082-0.476-10.116-1.428v-3.868c3.153 1.07 6.427 1.606 9.759 1.606 5.059 0 7.38-1.845 7.38-4.999 0-7.796-17.437-1.905-17.437-13.331-2e-3 -5.593 4.283-8.33 11.484-8.33z"/>
		<path d="m405.81 214.21h6.011c0.416 0 0.535 0.12 0.535 0.596v28.327h-4.761v-24.875c0-0.477-0.06-0.655-0.476-0.833l-1.786-0.773 0.477-2.442zm4.046-11.842c2.142 0 3.094 0.893 3.094 3.034 0 2.083-0.952 2.976-3.094 2.976-2.202 0-3.095-0.893-3.095-2.976 1e-3 -2.141 0.893-3.034 3.095-3.034z"/>
		<path d="m433.84 213.49c9.998 0 14.223 4.522 14.223 15.175 0 10.712-4.225 15.175-14.223 15.175-9.997 0-14.282-4.463-14.282-15.175 0-10.653 4.285-15.175 14.282-15.175zm0 26.541c6.605 0 9.344-3.274 9.344-11.366 0-8.094-2.738-11.367-9.344-11.367-6.665 0-9.402 3.272-9.402 11.367 0 8.092 2.737 11.366 9.402 11.366z"/>
		<path d="m480.14 239.08c0 0.477 0.06 0.654 0.476 0.833l1.785 0.774-0.476 2.44h-6.011c-0.416 0-0.535-0.119-0.535-0.596v-17.436c0-5.593-2.083-7.676-7.261-7.676-3.749 0-7.319 1.249-8.569 2.143v23.565h-4.761v-24.875c0-0.477-0.06-0.655-0.476-0.833l-1.785-0.773 0.476-2.441h6.011c0.416 0 0.535 0.12 0.535 0.596v2.023c2.023-1.904 5.118-3.332 9.402-3.332 7.975 0 11.188 3.332 11.188 11.485v14.103z"/>
		<path d="m509.6 214.21h8.688v3.749h-8.688v25.173h-4.761v-24.459c0-0.654 0-0.714-0.595-0.893l-3.393-0.952 0.417-2.619h3.57v-3.809c0-6.963 3.035-9.878 10.176-9.878 2.381 0 4.285 0.356 5.415 0.773l-0.773 3.69c-1.189-0.417-2.737-0.655-4.105-0.655-4.166 0-5.951 1.726-5.951 5.891v3.989z"/>
		<path d="m535.49 213.49c9.998 0 14.223 4.522 14.223 15.175 0 10.712-4.225 15.175-14.223 15.175-9.997 0-14.282-4.463-14.282-15.175 0-10.653 4.285-15.175 14.282-15.175zm0 26.541c6.605 0 9.344-3.274 9.344-11.366 0-8.094-2.738-11.367-9.344-11.367-6.665 0-9.402 3.272-9.402 11.367 0 8.092 2.737 11.366 9.402 11.366z"/>
		<path d="m556.62 218.25c0-0.477-0.06-0.655-0.476-0.833l-1.785-0.773 0.476-2.441h6.011c0.417 0 0.535 0.12 0.535 0.596v2.916c2.202-2.797 5.297-4.225 9.403-4.225 1.011 0 2.142 0.119 2.797 0.238l-0.834 4.166c-0.714-0.179-1.606-0.357-2.678-0.357-4.165 0-6.605 1.428-8.688 3.153v22.436h-4.761v-24.876z"/>
		<path d="m595.31 239.08c0 0.477 0.06 0.654 0.477 0.833l1.785 0.774-0.476 2.44h-6.011c-0.417 0-0.535-0.119-0.535-0.596v-37.252c0-0.476-0.06-0.655-0.477-0.833l-1.785-0.774 0.476-2.439h6.011c0.417 0 0.535 0.119 0.535 0.594v37.253z"/>
		<path d="m604.29 214.21h6.011c0.416 0 0.535 0.12 0.535 0.596v28.327h-4.761v-24.875c0-0.477-0.06-0.655-0.476-0.833l-1.786-0.773 0.477-2.442zm4.047-11.842c2.142 0 3.094 0.893 3.094 3.034 0 2.083-0.952 2.976-3.094 2.976-2.202 0-3.095-0.893-3.095-2.976 0-2.141 0.893-3.034 3.095-3.034z"/>
		<path d="m626.91 214.21h8.688v3.749h-8.688v25.173h-4.761v-24.459c0-0.654 0-0.714-0.596-0.893l-3.392-0.952 0.417-2.619h3.57v-3.809c0-6.963 3.035-9.878 10.176-9.878 2.381 0 4.285 0.356 5.416 0.773l-0.774 3.69c-1.189-0.417-2.737-0.655-4.105-0.655-4.166 0-5.951 1.726-5.951 5.891v3.989z"/>
		<path d="m652.2 213.49c8.808 0 12.497 4.403 12.497 14.698 0 0.656 0 1.31-0.06 1.846h-21.483c0.238 7.2 3.393 10.057 11.188 10.057 3.094 0 6.129-0.476 9.224-1.429v3.809c-2.916 0.953-6.07 1.37-9.581 1.37-10.89 0-15.532-4.463-15.532-15.175 0-10.654 4.107-15.176 13.747-15.176zm-9.046 13.27h16.961c-0.119-7.023-2.381-9.82-7.915-9.82-6.189 0-8.867 2.916-9.046 9.82z"/>
</svg>
